<svg xmlns="http://www.w3.org/2000/svg" version="1.1" xmlns:xlink="http://www.w3.org/1999/xlink" xmlns:svgjs="http://svgjs.dev/svgjs" width="1000" height="750" viewBox="0 0 1000 750"><rect width="1000" height="750" fill="#ffffff"></rect><g transform="matrix(0.834,0,0,0.834,82.9042112674428,57.503765806337924)"><svg viewBox="0 0 324 247" data-background-color="#ffffff" preserveAspectRatio="xMidYMid meet" height="762" width="1000" xmlns="http://www.w3.org/2000/svg" xmlns:xlink="http://www.w3.org/1999/xlink"><g id="tight-bounds" transform="matrix(1,0,0,1,0.03745023294590055,-0.09997365579206985)"><svg viewBox="0 0 323.92533687814705 247.2" height="247.2" width="323.92533687814705"><g><svg viewBox="0 0 323.92533687814705 247.2" height="247.2" width="323.92533687814705"><g><svg viewBox="0 0 323.92533687814705 247.2" height="247.2" width="323.92533687814705"><g><svg viewBox="0 0 323.92533687814705 247.2" height="247.2" width="323.92533687814705"><g><svg viewBox="0 0 323.92533687814705 247.2" height="247.2" width="323.92533687814705"><path d="M323.167 53.02C321.644 27.36 317.304 20.227 317.304 20.227 303.979-6.202 287.35-0.506 272.411 3.292 246.035 3.446 219.766 9.091 193.451 12.119 138.218 12.581 82.512 4.986 27.553 23.717 22.39 29.464-5.356 24.846 0.918 56.304 2.563 69.39 8.563 83.913 8.38 95.922 9.203 98.026 10.345 93.202 10.832 96.23 12.538 104.39 15.324 100.541 17.609 105.365 14.426 118.246 16.71 128.971 18.888 140.21 15.05 143.135 10.131 141.749 7.923 151.449 7.695 158.479 6.461 157.145 5.106 156.837 4.116 156.632 2.121 157.402 2.456 159.608 3.598 167.152-1.305 171.514 1.771 178.904-0.346 186.91 3.233 193.838 2.746 202.511 2.685 204.255 3.02 205.744 3.553 206.154 5.913 208.361 2.472 212.672 2.837 217.342 27.05 249.262 53.319 227.195 78.126 241.872 84.568 231.608 79.725 245.516 82.299 243.36 84.309 240.846 85.771 251.263 88.04 245.362 88.39 243.668 87.857 239.665 89.106 240.435 89.761 240.846 90.34 240.743 90.431 238.382 90.568 234.841 89.365 237.048 89.045 235.201 92.502 225.861 91.649 248.081 94.893 247.158 94.741 244.438 93.796 240.538 95.73 241.051 97.649 237.151 97.71 233.918 99.416 242.693 99.477 244.592 99.781 245.926 100.269 246.85 105.598 237.305 110.898 250.237 116.487 245.926 119.913 241.205 123.203 248.492 126.675 246.696 127.893 245.259 129.126 242.693 130.299 247.004 144.659 247.928 159.964 244.079 173.578 247.158 209.959 241.41 248.837 249.518 287.197 241.923 296.243 238.998 305.639 234.841 314.456 231.506 314.456 231.506 321.598 222.371 321.598 181.316S323.121 145.393 323.35 112.703C323.578 80.013 324.644 78.679 323.121 53.02Z" opacity="1" fill="#ff0000" data-fill-palette-color="tertiary"></path><g transform="matrix(1,0,0,1,55.76832000000002,26.230666666666668)"><svg width="212.38869687814702" viewBox="1.2 -33.1 36.099999999999994 33.1" height="194.73866666666666" data-palette-color="#ffffff"><path d="M34.25-3.25L37.3-2.65 37.25 0 25.7 0 15.95-13.7 14.5-12.15 14.5-3.3 18.45-2.65 18.4 0 1.5 0 1.2-1.6Q3.1-2.9 5.45-3.95L5.45-3.95 5.45-29.85 1.6-30.45 1.65-33.1 18.45-33.1 18.75-31.5Q16.95-30.2 14.5-29.15L14.5-29.15 14.5-18.7 24.95-29.95 21.7-30.45 21.75-33.1 35-33.1 35.3-31.5Q33.95-30.6 30.8-29.4L30.8-29.4 21.85-19.95 34.25-3.25Z" opacity="1" transform="matrix(1,0,0,1,0,0)" fill="#ffffff" class="undefined-text-0" data-fill-palette-color="quaternary" id="text-0"></path></svg></g></svg></g></svg></g></svg></g><g></g></svg></g><defs></defs></svg><rect width="323.92533687814705" height="247.2" fill="none" stroke="none" visibility="hidden"></rect></g></svg></g></svg>